<?xml version="1.0" encoding="utf-8"?>
<!-- Generator: Adobe Illustrator 26.0.1, SVG Export Plug-In . SVG Version: 6.00 Build 0)  -->
<svg version="1.1" id="Layer_1" xmlns="http://www.w3.org/2000/svg" xmlns:xlink="http://www.w3.org/1999/xlink" x="0px" y="0px"
	 viewBox="0 0 131 32" style="enable-background:new 0 0 131 32;" xml:space="preserve">
<style type="text/css">
	.st0{fill:#161513;}
	.st1{fill:#E94D35;}
</style>
<path class="st0" d="M128.3,24.7c-0.8,0-1.5-0.2-2-0.7c-0.5-0.5-0.7-1.2-0.7-2c0-0.8,0.2-1.5,0.7-1.9c0.5-0.5,1.2-0.8,2-0.8
	s1.5,0.3,1.9,0.8c0.5,0.5,0.8,1.1,0.8,1.9c0,0.8-0.3,1.5-0.8,2C129.8,24.5,129.1,24.7,128.3,24.7z"/>
<g>
	<path class="st0" d="M53,19.7c0,2,0.1,4,0.1,4.3h-4.6c-0.1-0.4-0.2-1.3-0.2-1.7c-0.8,1.3-2.6,2.2-5.5,2.2c-4.2,0-5.9-2.6-5.9-5
		c0-4,3.5-5.2,8.1-5.2c1.2,0,2.7,0,3.2,0v-0.5c0-1.2-0.5-2.3-2.8-2.3c-2.1,0-2.6,0.8-2.8,1.7h-4.9c0.1-1.9,1.5-5,7.6-5
		c6.7,0,7.6,3.2,7.6,5.7V19.7z M48.3,17.3c-0.4,0-1.4,0-3.1,0c-2.5,0-3.5,0.7-3.5,1.9c0,1,0.8,1.8,2.6,1.8c2.7,0,4-1.2,4-3.4V17.3z"
		/>
	<path class="st0" d="M54.8,12.5c0-1.3,0-2.8,0-3.9h4.8c0.1,0.4,0.1,1.4,0.1,2c0.7-1.1,2.1-2.4,5.1-2.4c3.8,0,6,2.4,6,6.3V24h-4.9
		v-8.7c0-1.8-0.7-3.3-2.9-3.3c-2.3,0-3.3,1.6-3.3,4.4V24h-4.9V12.5z"/>
	<path class="st0" d="M89.1,22.3c0,5.5-2.4,8.6-9,8.6c-6.8,0-8-3.8-8.3-5.5h4.9c0.3,1,1.2,1.9,3.7,1.9c3.2,0,3.9-2,3.9-4.7V22
		c-0.9,1.2-2.1,2.2-5.1,2.2c-4.5,0-7.5-3.5-7.5-7.7c0-4.8,3.4-8.3,7.9-8.3c3.2,0,4.4,1.3,4.7,2.2c0-0.5,0.1-1.4,0.1-1.7h4.8
		c0,1.5,0,3,0,4.5V22.3z M76.7,16.3c0,2.2,1.3,4.1,3.8,4.1c2.5,0,3.9-1.5,3.9-4.3c0-2.5-1.3-4.2-3.7-4.2
		C78.1,11.9,76.7,13.8,76.7,16.3z"/>
	<path class="st0" d="M106.6,19.5c0,1.5,0,3,0,4.5h-4.8c-0.1-0.4-0.1-1.1-0.1-1.8c-0.8,1.2-1.9,2.2-5.2,2.2c-3.2,0-5.7-1.9-5.7-6.4
		V8.6h4.9v8.6c0,2,0.7,3.4,2.8,3.4c2.4,0,3.3-1.4,3.3-4.9V8.6h4.9V19.5z"/>
	<path class="st0" d="M111.8,19.3c0.4,1.1,1.4,1.8,3.5,1.8c2.1,0,2.7-0.6,2.7-1.4c0-0.9-0.7-1.3-3.8-1.7c-5.9-0.8-6.7-3-6.7-4.9
		c0-2.3,1.8-5,7.1-5c5.4,0,7.4,2.6,7.6,4.8h-4.8c-0.2-0.7-0.8-1.6-2.9-1.6c-1.8,0-2.2,0.7-2.2,1.2c0,0.6,0.5,1,3.4,1.5
		c6.3,0.9,7.1,3,7.1,5.2c0,2.8-2.1,5.1-7.8,5.1c-4.2,0-7.5-1.8-8-5.2H111.8z"/>
</g>
<g>
	<path class="st1" d="M22.7,32H38L19.2,0l-5.7,9.5c2.5,4.2,7.6,12.9,8.6,14.6c0.6,1,1.3,2,1.5,3.2c0.2,1.1-0.1,2.2-0.3,3.2
		C23.1,31,22.7,32,22.7,32z"/>
	<path class="st1" d="M16.4,32c0,0-2-0.1-3.5-2.8c-1-1.7-2-3.5-3.1-5.2c-0.8-1.4-1.6-2.8-2.5-4.2L0.1,32H16.4z"/>
</g>
</svg>
